<svg width="1520" height="845" viewBox="0 0 1520 845" fill="none" xmlns="http://www.w3.org/2000/svg">
<g filter="url(#filter0_f_4613_1916)">
<path d="M804.469 312.725C812.59 312.725 819.173 300.305 819.173 284.984C819.173 269.662 812.59 257.242 804.469 257.242C796.347 257.242 789.764 269.662 789.764 284.984C789.764 300.305 796.347 312.725 804.469 312.725Z" fill="white" fill-opacity="0.05"/>
<path d="M1000.12 450.279C1001.65 447.666 1005.23 447.258 1007.29 449.464C1029.22 473.153 1040.99 496.771 1034.28 506.697C1027.06 517.343 996.736 514.777 959.722 496.291C956.363 494.613 956.459 489.769 959.889 488.235C966.174 485.429 974.378 480.298 982.966 471.403C990.619 463.442 996.808 455.914 1000.12 450.279Z" fill="white" fill-opacity="0.05"/>
<path d="M527.019 394.806C518.671 396.772 458.292 294.87 495.858 209.344C515.217 165.25 555.541 137.053 562.738 141.944C569.071 146.236 546.689 174.145 554.893 213.132C558.564 230.539 564.849 233.656 564.297 247.755C563.409 269.886 547.241 279.836 535.799 298.274C508.668 341.961 532.872 393.415 527.019 394.806Z" fill="white" fill-opacity="0.05"/>
<path d="M574.323 441.772C594.665 425.947 620.333 430.887 641.875 441.365C653.125 446.831 663.824 453.737 673.947 461.074C681.599 466.636 690.643 473.83 690.667 484.188C690.715 496.967 674.859 507.038 665.551 512.984C634.582 532.765 599.031 546.24 562.617 551.539C554.773 552.69 545.321 553.481 538.605 548.398C529.393 541.445 530.329 526.675 531.288 516.557C534.047 487.233 551.247 459.683 574.323 441.772Z" fill="white" fill-opacity="0.05"/>
<path d="M977.688 271.843C972.482 264.65 969.82 255.995 969.844 247.123C969.844 247.075 969.844 247.027 969.844 246.979C969.844 176.894 910.952 120.788 830.423 103.309C839.107 129.611 846.04 154.979 850.693 173.154C852.348 179.652 844.6 184.279 839.923 179.58C822.507 162.052 794.44 140.161 755.1 129.875C732.478 123.953 712.112 123.449 696.208 124.672C690.355 125.128 685.605 120.38 685.509 114.722C624.675 139.322 583.295 188.235 583.295 247.003C583.295 247.051 583.295 247.099 583.295 247.147C583.295 256.019 580.632 264.674 575.451 271.867C555.852 298.961 544.649 330.371 544.649 363.867C544.649 388.828 550.886 411.366 562.185 431.147C563.168 430.332 564.176 429.541 565.183 428.749C590.851 408.824 623.259 415.034 650.438 428.246C664.639 435.151 678.145 443.831 690.907 453.062C700.574 460.063 711.968 469.127 712.016 482.17C712.064 496.365 696.544 507.874 684.814 515.546C712.952 523.147 743.969 527.127 776.569 527.127C904.667 527.127 1008.51 465.842 1008.51 363.867C1008.49 330.347 997.286 298.914 977.688 271.843ZM946.407 303.062C928.416 346.46 869.092 352.694 838.483 355.931C774.986 362.645 678.217 345.213 667.086 293.183C661.185 265.585 679.896 230.675 705.755 216.121C737.972 197.994 758.074 219.31 833.038 214.107C886.028 210.438 899.558 197.634 919.9 209.839C946.935 226.095 959.768 270.788 946.407 303.062Z" fill="white" fill-opacity="0.05"/>
<path d="M823.587 148.753C826.97 152.062 832.583 148.825 831.383 144.222C820.517 102.813 792.258 8.34368 760.69 10.0221C736.389 11.2929 719.789 69.0057 712.209 101.279C711.106 106.002 714.896 110.438 719.741 110.078C731.232 109.215 745.937 109.575 762.297 113.747C790.723 120.988 811.017 136.381 823.587 148.753Z" fill="white" fill-opacity="0.05"/>
<path d="M890.563 302.694C898.022 302.694 904.069 291.283 904.069 277.206C904.069 263.13 898.022 251.719 890.563 251.719C883.104 251.719 877.058 263.13 877.058 277.206C877.058 291.283 883.104 302.694 890.563 302.694Z" fill="white" fill-opacity="0.05"/>
</g>
<g filter="url(#filter1_f_4613_1916)">
<path d="M159.678 727.927C160.125 729.573 161.207 732.784 162.925 737.558C164.642 742.344 166.019 746.448 167.065 749.882C168.112 753.316 168.665 757.126 168.748 761.313C168.818 765.499 167.889 768.78 165.948 771.168C163.254 774.601 157.584 776.248 148.914 776.095C146.667 776.095 142.973 776.013 137.821 775.872C132.668 775.719 128.669 775.648 125.834 775.648C120.152 775.648 115.893 775.201 113.058 774.307C108.27 772.52 105.365 769.604 104.318 765.57C104.012 764.382 103.941 762.512 104.094 759.972C104.388 752.058 106.106 741.086 109.247 727.045C109.541 725.551 110.294 722.411 111.494 717.637C112.693 712.862 113.54 708.829 114.07 705.536C114.587 702.255 114.776 699.115 114.634 696.128C114.634 694.341 114.187 693.141 113.293 692.541C112.399 692.095 111.235 692.659 109.823 694.223C108.4 695.787 106.906 698.033 105.341 700.95C103.777 703.866 102.283 706.7 100.859 709.464C99.4357 712.227 98.0946 714.991 96.8241 717.754C95.5537 720.518 94.8478 722.117 94.6949 722.576C93.495 724.822 92.3774 726.316 91.3305 727.056C89.3894 728.55 87.5896 728.703 85.9545 727.503C85.5074 726.904 84.978 726.01 84.3899 724.81C79.4609 712.862 75.12 703.302 71.3909 696.14C70.0499 693.6 68.6265 692.412 67.1325 692.553C65.1914 692.859 64.1445 694.564 63.9915 697.704C63.9915 699.644 64.1798 701.549 64.5562 703.419C64.9326 705.289 65.4502 707.418 66.1208 709.805C66.7913 712.192 67.2736 714.062 67.5795 715.403C72.0614 736.311 74.5318 751.176 74.9789 759.984C74.9789 762.524 74.8259 764.394 74.5318 765.582C73.6378 769.615 70.7204 772.532 65.7914 774.319C63.0975 775.213 58.839 775.66 53.016 775.66C50.7691 775.66 48.3105 775.695 45.6166 775.777C42.9227 775.848 40.1582 775.93 37.3231 776.001C34.488 776.071 32.0177 776.118 29.9237 776.118C21.2538 776.271 15.5837 774.625 12.8898 771.191C11.5487 769.545 10.6782 767.534 10.3135 765.147C9.93711 762.759 9.90181 760.325 10.1959 757.867C10.49 755.398 11.0547 752.681 11.8781 749.694C12.7016 746.707 13.5604 744.061 14.4544 741.745C15.3485 739.428 16.2778 736.923 17.2541 734.242C18.2188 731.549 18.9364 729.467 19.3834 727.974C23.8654 710.804 24.6065 691.154 21.6303 669.057C20.4304 660.096 18.5717 650.171 16.0307 639.258C15.8778 638.517 15.4308 636.906 14.6897 634.436C13.9368 631.967 13.4545 630.108 13.231 628.838C13.0075 627.568 12.8545 625.922 12.7839 623.911C12.7016 621.9 13.0075 620.101 13.678 618.537C14.3485 616.973 15.3602 615.585 16.7013 614.397C18.9481 612.61 22.4537 611.187 27.2298 610.14C33.9587 608.8 42.2404 608.353 52.1101 608.8C53.0042 608.8 54.804 608.764 57.4862 608.682C60.1801 608.612 62.3093 608.612 63.8739 608.682C65.4385 608.764 67.2736 609.094 69.3676 609.693C71.4615 610.293 73.0967 611.187 74.2966 612.386C76.6846 614.48 77.9198 617.279 77.9904 620.783C78.061 624.299 77.5434 628.368 76.4258 632.99C75.3083 637.623 74.673 640.904 74.5201 642.844C74.5201 646.431 75.3435 651.064 76.9905 656.733C79.3785 664.8 82.8959 674.737 87.519 686.532C87.966 687.732 88.4836 688.32 89.0836 688.32C89.6835 688.32 90.2012 687.802 90.6482 686.756C96.6242 674.514 100.436 664.953 102.083 658.085C102.824 654.945 103.2 651.558 103.2 647.889C103.2 644.232 103.047 641.28 102.753 639.046C102.447 636.8 102 633.366 101.412 628.744C100.365 621.724 101.106 616.726 103.647 613.739C105.435 611.646 108.423 610.117 112.611 609.141C116.787 608.176 120.752 607.765 124.492 607.906C127.033 607.906 130.763 607.941 135.703 608.024C140.632 608.106 144.361 608.212 146.914 608.365C151.549 608.365 154.984 608.67 157.219 609.258C161.254 610.458 164.019 612.551 165.513 615.526C166.407 617.173 166.854 619.184 166.854 621.571C166.854 623.958 166.63 626.051 166.183 627.839C165.736 629.626 165.066 631.943 164.172 634.789C163.278 637.623 162.748 639.575 162.607 640.61C160.066 651.217 158.196 660.919 157.007 669.739C154.149 691.483 155.043 710.898 159.678 727.927Z" fill="white" fill-opacity="0.05"/>
<path d="M265.011 749.883C266.505 756.457 267.258 760.855 267.258 763.101C267.258 763.254 267.175 763.407 267.034 763.548C266.881 766.982 266.14 769.71 264.787 771.721C263.446 773.732 261.576 775.038 259.188 775.637C256.8 776.237 254.482 776.531 252.236 776.531C249.989 776.531 247.224 776.414 243.942 776.19C240.648 775.967 238.19 775.849 236.543 775.849C234.296 776.002 230.273 776.296 224.438 776.743C218.615 777.19 214.133 777.413 210.992 777.413C188.876 777.566 176.853 769.499 174.912 753.223C174.171 747.249 175.254 741.346 178.159 735.525C181.077 729.704 185.065 724.694 190.146 720.519C194.923 716.791 202.357 713.31 212.451 710.1C222.532 706.889 229.143 704.467 232.284 702.821C237.507 700.128 240.048 695.953 239.907 690.273C239.754 685.345 237.743 682.288 233.861 681.088C231.625 680.195 229.002 680.489 226.014 681.982C223.626 683.029 221.085 685.122 218.391 688.25C217.944 688.697 217.121 689.591 215.921 690.943C214.721 692.284 213.827 693.295 213.227 693.965C212.627 694.636 211.839 695.424 210.874 696.317C209.898 697.211 208.898 697.964 207.851 698.563C205.604 700.057 203.251 700.845 200.793 700.915C198.322 700.998 196.052 700.28 193.958 698.787C189.77 695.2 188.17 689.908 189.135 682.876C190.099 675.855 192.982 671.081 197.758 668.541C201.04 666.753 206.416 665.848 213.897 665.848C216.438 665.848 220.321 665.883 225.555 665.965C230.778 666.048 234.743 666.083 237.437 666.083C248.789 666.236 256.329 668.623 260.07 673.256C264.846 679.383 266.493 690.285 264.999 705.96C264.246 712.981 263.764 718.097 263.541 721.307C263.317 724.517 263.282 728.963 263.423 734.643C263.588 740.323 264.105 745.403 265.011 749.883ZM229.379 727.928C229.673 723.153 228.555 721.283 226.014 722.33C223.473 723.224 220.932 725.846 218.391 730.174L217.721 731.291C216.074 735.172 215.78 738.312 216.827 740.699C217.721 742.486 219.062 743.463 220.862 743.615C222.65 743.768 224.226 743.321 225.567 742.275C226.614 741.534 227.391 740.487 227.92 739.135C228.437 737.794 228.779 736.712 228.932 735.889C229.084 735.066 229.19 733.573 229.273 731.409C229.332 729.233 229.379 728.081 229.379 727.928Z" fill="white" fill-opacity="0.05"/>
<path d="M362.484 684.014C362.779 691.635 361.437 698.35 358.449 704.183C356.803 707.17 354.932 709.333 352.85 710.674C350.015 712.461 347.168 712.838 344.333 711.791C343.133 711.191 342.051 710.262 341.086 708.992C340.11 707.722 339.439 706.723 339.075 705.97C338.698 705.229 338.063 703.806 337.169 701.713C336.275 699.62 335.228 697.538 334.028 695.445C332.381 692.458 330.664 690.588 328.875 689.847C327.534 689.553 326.44 689.506 325.629 689.73C324.805 689.953 324.099 690.623 323.499 691.741C322.899 692.858 322.488 693.869 322.264 694.763C322.041 695.657 321.782 696.703 321.476 697.903C320.723 701.337 320.5 706.041 320.806 712.015C321.1 717.989 321.476 722.763 321.923 726.35C322.37 729.937 322.97 734.711 323.711 740.685C324.452 746.659 325.052 751.363 325.499 754.797C325.652 756.584 325.723 758.384 325.723 760.171C326.017 763.158 325.864 765.404 325.276 766.898C324.523 768.544 323.37 769.92 321.805 771.037C320.241 772.154 318.406 773.013 316.312 773.613C306.148 777.199 295.843 777.564 285.385 774.73C282.844 774.13 280.973 773.307 279.785 772.26C277.397 770.167 276.127 766.992 275.974 762.735C275.821 758.478 276.127 754.938 276.868 752.092C277.315 749.105 277.985 745.412 278.879 741.003C279.774 736.604 280.562 732.677 281.232 729.243C281.903 725.809 282.503 722.116 283.02 718.153C283.538 714.202 283.761 710.239 283.691 706.276C283.609 702.324 283.126 698.479 282.232 694.739C282.079 693.846 281.667 692.235 280.997 689.918C280.326 687.601 279.832 685.778 279.538 684.426C279.232 683.085 279.009 681.368 278.868 679.275C278.715 677.182 278.868 675.465 279.315 674.124C279.762 672.784 280.621 671.478 281.891 670.208C283.161 668.938 284.844 667.939 286.938 667.186C288.432 666.739 289.89 666.481 291.302 666.398C292.725 666.328 293.878 666.398 294.772 666.622C295.666 666.845 296.972 667.186 298.69 667.633C300.407 668.08 301.784 668.386 302.831 668.527C309.101 669.867 315.382 669.95 321.653 668.75C324.641 668.303 330.087 667.551 338.016 666.504C346.98 665.457 353.25 666.433 356.838 669.42C360.32 672.443 362.19 677.288 362.484 684.014Z" fill="white" fill-opacity="0.05"/>
<path d="M418.74 756.378C418.881 760.564 418.293 764.069 416.952 766.903C415.905 769.149 414.564 770.936 412.917 772.277C411.27 773.618 409.258 774.547 406.87 775.076C404.482 775.593 402.459 775.934 400.824 776.087C399.177 776.24 396.859 776.311 393.871 776.311C393.118 776.311 392.601 776.311 392.307 776.311C381.249 776.605 374.073 774.217 370.791 769.137C368.697 765.856 368.097 760.705 369.003 753.685C370.497 743.383 372.508 733.293 375.049 723.439C377.437 714.031 378.261 707.234 377.52 703.047C377.214 701.706 376.767 700.248 376.179 698.684C375.579 697.12 374.873 695.438 374.049 693.639C373.226 691.852 372.591 690.429 372.144 689.382C370.356 685.501 370.05 681.503 371.25 677.399C372.438 673.295 375.132 670.566 379.32 669.226C381.555 668.332 385.143 667.885 390.072 667.885C390.966 667.885 392.389 667.885 394.33 667.885C396.271 667.885 397.765 667.885 398.812 667.885C399.859 667.885 401.165 667.967 402.729 668.109C404.294 668.261 405.753 668.52 407.094 668.896C408.435 669.273 409.705 669.825 410.905 670.578C413.599 672.072 415.387 674.012 416.281 676.399C416.881 677.74 417.105 679.386 416.952 681.327C416.799 683.267 416.199 686.031 415.164 689.617C414.117 693.204 413.446 695.662 413.152 697.014C412.705 699.401 412.399 701.871 412.258 704.411C412.105 706.951 412.105 709.456 412.258 711.914C412.411 714.383 412.599 716.771 412.823 719.087C413.046 721.404 413.387 723.909 413.834 726.59C414.281 729.283 414.693 731.706 415.07 733.87C415.446 736.033 415.893 738.503 416.411 741.266C416.928 744.03 417.422 746.453 417.869 748.546C418.293 751.827 418.587 754.437 418.74 756.378ZM375.485 651.986C372.649 650.045 370.779 647.247 369.885 643.589C368.991 639.932 369.285 636.604 370.779 633.617C372.426 629.736 375.038 626.89 378.625 625.103C382.213 623.315 385.872 622.457 389.601 622.527C393.33 622.61 397.224 622.716 401.259 622.868C405.741 623.174 409.658 624.703 413.023 627.467C416.387 630.23 418.21 633.852 418.516 638.333C418.657 641.32 417.916 644.236 416.269 647.07C414.623 649.904 412.458 651.998 409.776 653.338C406.341 654.985 401.035 655.573 393.859 655.126C393.26 655.126 392.33 655.09 391.06 655.008C389.789 654.938 388.848 654.891 388.26 654.891C382.284 654.597 378.025 653.632 375.485 651.986Z" fill="white" fill-opacity="0.05"/>
<path d="M520.261 748.988C522.049 755.856 522.508 760.936 521.602 764.217C521.296 765.711 520.708 767.051 519.814 768.251C517.72 771.238 514.438 773.178 509.956 774.072C493.675 777.212 483.582 775.342 479.699 768.474C478.358 766.087 478.053 762.348 478.805 757.267C481.041 740.686 480.817 723.293 478.135 705.065C476.935 696.551 475.37 692.224 473.429 692.071C472.535 692.071 471.488 692.741 470.288 694.082C469.841 694.681 469.465 695.646 469.171 696.998C468.124 701.926 467.489 707.3 467.265 713.133C467.042 718.954 467.112 724.069 467.489 728.479C467.865 732.889 468.347 738.334 468.947 744.837C469.547 751.329 469.912 756.597 470.065 760.631C470.218 763.923 469.583 766.605 468.159 768.698C466.736 770.791 465.018 772.32 463.007 773.296C460.995 774.26 458.407 774.895 455.278 775.201C452.137 775.495 449.408 775.577 447.102 775.424C444.785 775.272 442.138 774.978 439.15 774.531C436.162 774.225 433.997 773.637 432.656 772.743C429.668 770.956 427.951 767.886 427.504 763.559C427.198 761.313 427.504 757.738 428.398 752.81C431.092 737.581 432.88 722.199 433.774 706.665C434.374 697.704 433.997 691.212 432.656 687.179C431.762 684.486 431.162 682.475 430.868 681.134C430.562 679.794 430.492 677.994 430.645 675.76C430.798 673.514 431.539 671.656 432.892 670.162C434.538 668.222 436.55 667.105 438.938 666.799C441.326 666.505 443.573 666.764 445.667 667.587C447.761 668.41 450.149 669.198 452.843 669.939C455.537 670.691 457.772 670.915 459.572 670.609C461.96 670.162 465.207 669.374 469.324 668.257C473.429 667.14 477.206 666.281 480.641 665.682C484.076 665.082 487.44 664.859 490.722 665.011C506.109 666.211 514.108 677.265 514.697 698.162C515.108 718.448 516.967 735.394 520.261 748.988Z" fill="white" fill-opacity="0.05"/>
<path d="M626.934 738.006C628.275 748.308 625.923 756.599 619.876 762.878C613.829 769.146 605.418 773.333 594.666 775.426C582.267 777.672 569.645 776.026 556.787 770.499C551.258 768.111 546.847 765.383 543.565 762.326C540.282 759.268 537.365 755.117 534.824 749.895C527.801 735.113 526.684 720.178 531.46 705.09C534.154 697.023 538.588 689.826 544.8 683.476C550.999 677.126 558.057 672.539 565.974 669.693C577.185 665.66 587.714 665.813 597.572 670.14C602.948 672.68 607.501 676.491 611.241 681.571C614.971 686.651 616.017 691.872 614.382 697.258C612.888 702.045 607.583 705.479 598.466 707.56C597.125 707.866 594.466 708.419 590.514 709.242C586.549 710.065 583.267 710.853 580.656 711.594C578.044 712.346 575.538 713.311 573.15 714.51C570.009 716.298 568.221 718.25 567.774 720.331C567.468 722.577 568.374 724.588 570.468 726.376C571.809 727.575 573.833 728.469 576.515 729.069C586.079 731.609 594.066 730.856 600.489 726.823C601.383 726.223 602.76 725.176 604.63 723.683C606.501 722.189 607.948 721.143 608.994 720.543C614.818 716.956 619.452 718.156 622.887 724.13C624.687 727.105 626.028 731.738 626.934 738.006ZM567.316 690.967C567.01 695.001 567.233 697.988 567.986 699.928C568.586 701.574 569.41 702.621 570.457 703.068C572.997 704.267 575.574 702.727 578.185 698.47C580.797 694.213 582.103 690.744 582.103 688.051C582.256 685.957 581.691 684.205 580.42 682.782C579.15 681.359 577.621 680.583 575.821 680.43C574.174 680.277 572.609 680.654 571.115 681.547C568.88 682.9 567.61 686.028 567.316 690.967Z" fill="white" fill-opacity="0.05"/>
<path d="M781.898 706.864C782.639 726.574 779.804 741.438 773.381 751.446C769.793 757.267 765.017 762.159 759.041 766.122C753.065 770.085 746.56 772.814 739.549 774.295C731.632 776.083 719.597 776.765 703.469 776.306C701.222 776.153 697.905 776.048 693.493 775.965C689.082 775.883 685.765 775.777 683.518 775.624C682.765 775.624 681.424 775.624 679.483 775.624C677.542 775.624 676.012 775.624 674.883 775.624C673.766 775.624 672.448 775.436 670.966 775.06C669.472 774.683 668.131 774.201 666.931 773.601C664.39 771.955 662.79 769.944 662.108 767.557C661.437 765.17 661.402 763.006 661.99 761.065C662.59 759.125 663.59 756.55 665.013 753.339C666.437 750.129 667.284 747.847 667.59 746.507C672.213 730.972 675.06 718.06 676.107 707.746C678.942 678.476 674.989 652.416 664.225 629.555C660.049 620.594 661.167 614.326 667.59 610.74C670.131 609.093 674.46 608.352 680.589 608.493C686.412 608.493 695.305 608.529 707.257 608.611C719.209 608.693 728.102 608.729 733.925 608.729C740.948 608.882 746.96 609.552 751.971 610.74C756.971 611.939 760.97 614.397 763.958 618.137C767.84 623.064 769.181 629.191 767.993 636.505C767.099 641.739 764.629 647.63 760.594 654.204C756.712 660.472 750.653 667.046 742.442 673.913C749.618 672.267 756.594 672.455 763.394 674.478C770.193 676.489 775.087 680.569 778.075 686.685C780.169 690.871 781.439 696.469 781.886 703.489C781.898 704.548 781.898 705.677 781.898 706.864ZM709.951 662.953C711.445 664.153 713.539 664.153 716.221 662.953C721.903 660.26 725.185 655.862 726.079 649.735C726.232 648.242 726.232 646.678 726.079 645.031C725.479 641.445 723.644 638.575 720.585 636.411C717.527 634.248 713.892 633.236 709.716 633.389C707.622 633.542 706.198 634.212 705.457 635.4C705.01 636 704.857 637.117 705.01 638.763C705.904 645.937 707.104 653.028 708.598 660.049C708.904 661.542 709.351 662.506 709.951 662.953ZM735.278 715.602C736.172 709.028 734.302 703.054 729.679 697.68C728.479 696.187 727.067 694.846 725.42 693.646C723.773 692.459 721.868 691.553 719.703 690.953C717.539 690.354 715.786 691.036 714.433 692.964C713.233 694.458 712.645 696.845 712.645 700.138C712.492 707.911 712.645 715.673 713.092 723.434C713.092 724.187 713.092 724.775 713.092 725.222C713.386 726.715 713.986 727.832 714.88 728.585C715.774 729.185 717.044 729.561 718.691 729.702C723.326 730.149 727.279 728.808 730.573 725.668C733.267 722.999 734.831 719.636 735.278 715.602Z" fill="white" fill-opacity="0.05"/>
<path d="M877.584 690.965C883.266 703.066 886.018 716.061 885.877 729.949C885.571 742.497 881.995 752.657 875.125 760.419C873.478 762.359 871.608 764.158 869.525 765.793C858.915 774.013 846.48 777.482 832.211 776.212C817.941 774.942 806.554 769.156 798.037 758.855C792.955 752.881 789.779 745.895 788.509 737.91C787.238 729.925 787.497 722.152 789.297 714.614C791.085 707.076 793.932 699.797 797.814 692.776C803.496 682.616 810.73 675.042 819.553 670.033C828.364 665.035 838.081 663.87 848.692 666.563C852.868 667.61 856.868 669.327 860.679 671.714C864.491 674.102 867.808 676.947 870.655 680.228C873.466 683.498 875.796 687.073 877.584 690.965ZM844.41 723.669C845.751 720.976 846.421 717.401 846.421 712.921C846.421 707.993 845.892 703.36 844.857 699.032C843.657 694.552 841.716 691.718 839.034 690.518C836.493 689.319 834.105 690.071 831.858 692.764C830.517 694.552 829.388 697.245 828.494 700.832C825.953 709.945 826.105 717.413 828.941 723.234C830.587 726.821 832.823 728.879 835.669 729.396C838.504 729.925 841.045 728.691 843.292 725.704C843.598 725.092 843.963 724.422 844.41 723.669Z" fill="white" fill-opacity="0.05"/>
<path d="M985.822 760.855C986.116 763.101 987.01 767.946 988.516 775.414C990.01 782.881 990.986 788.703 991.433 792.889C992.633 805.131 990.61 814.621 985.387 821.336C978.211 830.45 964.4 835.001 943.931 835.001C938.402 835.001 932.579 834.695 926.45 834.107C922.568 833.66 919.498 833.061 917.263 832.32C909.346 829.78 903.441 825.005 899.559 817.984C896.571 812.01 895.229 805.625 895.523 798.828C895.818 792.031 897.394 785.645 900.229 779.671C902.617 774.744 905.605 772.203 909.193 772.051C911.581 771.898 914.793 773.615 918.828 777.201C920.616 778.848 922.639 780.377 924.874 781.799C927.121 783.222 929.615 784.528 932.379 785.716C935.144 786.915 937.826 787.691 940.449 788.067C943.061 788.444 945.637 788.256 948.178 787.503C950.719 786.75 952.813 785.257 954.448 783.023C957.142 779.283 958.401 774.203 958.26 767.794C958.26 765.101 958.036 762.49 957.589 759.95C957.142 756.963 956.248 754.799 954.895 753.458C954.001 752.565 952.954 751.965 951.754 751.671C950.554 751.377 949.284 751.377 947.943 751.671C946.602 751.977 945.437 752.341 944.472 752.788C943.496 753.235 942.261 753.835 940.779 754.576C939.285 755.328 938.238 755.846 937.638 756.14C929.568 759.726 922.768 761.22 917.239 760.62C912.004 760.62 907.381 758.903 903.346 755.469C899.311 752.035 896.547 747.778 895.053 742.698C892.806 734.631 892.736 725.752 894.829 716.039C895.124 715.145 895.571 713.428 896.171 710.888C896.771 708.348 897.182 706.595 897.406 705.619C897.629 704.655 897.97 702.891 898.417 700.351C898.864 697.811 899.017 696.023 898.864 694.977C898.711 693.93 898.641 692.143 898.641 689.602C898.488 688.709 898.194 687.18 897.747 685.004C897.3 682.841 896.994 681.159 896.853 679.959C896.7 678.76 896.7 677.313 896.853 675.597C897.006 673.88 897.523 672.421 898.417 671.234C899.311 670.046 900.464 669.035 901.888 668.211C903.311 667.388 904.617 666.788 905.805 666.424C907.005 666.048 908.758 665.859 911.075 665.859C913.393 665.859 915.028 665.895 916.004 665.977C916.969 666.059 918.698 666.236 921.157 666.541C923.627 666.847 925.004 666.988 925.298 666.988C928.439 667.435 930.744 668.188 932.25 669.234C935.085 671.175 936.355 675.208 936.061 681.335C935.755 685.663 935.532 691.978 935.391 700.269C935.238 708.559 935.085 714.639 934.944 718.532C934.791 718.837 934.72 719.39 934.72 720.213C934.72 721.036 934.685 721.742 934.603 722.342C934.52 722.942 934.485 723.647 934.485 724.47C934.485 725.294 934.485 726.034 934.485 726.716C934.485 727.387 934.556 728.057 934.709 728.727C934.862 729.398 935.085 730.033 935.379 730.632C935.673 731.232 935.979 731.679 936.273 731.973C938.661 734.513 940.755 734.631 942.543 732.314C944.331 729.997 945.531 727.269 946.131 724.141C948.966 710.547 949.566 700.245 947.919 693.224C947.919 692.625 947.66 691.319 947.131 689.308C946.602 687.298 946.343 686.063 946.343 685.616C946.343 685.169 946.19 683.899 945.896 681.806C945.59 679.712 945.59 678.372 945.896 677.772C946.343 674.338 947.39 671.728 949.037 669.928C951.131 667.682 954.566 666.565 959.342 666.565C969.506 666.565 977.117 666.788 982.199 667.235C985.928 667.682 988.469 668.658 989.822 670.152C990.716 671.045 991.351 672.21 991.727 673.621C992.104 675.044 992.327 676.384 992.398 677.654C992.469 678.925 992.398 680.489 992.174 682.358C991.951 684.228 991.727 685.686 991.504 686.721C991.28 687.768 990.904 689.297 990.386 691.319C989.857 693.33 989.598 694.565 989.598 695.012C989.151 696.799 988.292 700.198 987.022 705.208C985.751 710.217 984.74 714.51 983.999 718.085C983.246 721.672 982.728 725.105 982.434 728.386C982.128 730.174 982.128 732.984 982.434 736.783C982.728 740.593 982.999 743.239 983.222 744.733C983.446 746.226 983.857 748.872 984.457 752.682C985.081 756.492 985.528 759.221 985.822 760.855Z" fill="white" fill-opacity="0.05"/>
<path d="M1082.64 716.055C1090.4 724.122 1093.99 733.236 1093.39 743.384C1092.94 749.511 1091.14 754.733 1088.01 759.072C1084.87 763.411 1080.7 766.916 1075.46 769.597C1069.93 772.29 1063.39 774.148 1055.85 775.195C1048.31 776.241 1041.24 776.535 1034.68 776.089C1028.1 775.642 1022.05 774.818 1016.53 773.619C1011.29 772.419 1007.22 770.444 1004.32 767.68C1001.4 764.917 999.574 761.001 998.821 755.92C997.327 745.466 999.115 735.752 1004.2 726.791C1007.48 721.264 1011.15 718.724 1015.17 719.171C1016.51 719.324 1018.61 720.288 1021.44 722.087C1025.48 724.78 1029.65 727.168 1033.99 729.261C1035.49 730.014 1037.05 730.602 1038.7 731.048C1040.35 731.495 1042.02 731.719 1043.75 731.719C1045.46 731.719 1046.81 731.154 1047.78 730.037C1048.75 728.92 1049.16 727.168 1049.02 724.769C1048.86 721.488 1046.92 718.418 1043.19 715.584C1041.55 714.244 1039.61 713.044 1037.37 711.997C1035.12 710.951 1032.74 709.869 1030.2 708.752C1027.65 707.635 1025.63 706.706 1024.15 705.953C1015.93 701.472 1011.82 695.945 1011.82 689.372C1011.82 685.938 1013.06 682.351 1015.51 678.623C1017.98 674.895 1020.78 672.049 1023.91 670.109C1026.9 668.169 1030.63 666.71 1035.12 665.746C1039.61 664.782 1044.09 664.405 1048.57 664.629C1053.05 664.852 1057.16 666.017 1060.9 668.098C1064.63 670.191 1067.17 673.178 1068.52 677.059C1069.57 680.199 1069.67 683.445 1068.86 686.808C1068.04 690.171 1066.36 692.97 1063.82 695.204C1062.92 696.098 1062.03 696.627 1061.12 696.769C1060.23 696.921 1059.11 696.698 1057.76 696.098C1056.56 695.651 1054.55 694.569 1051.71 692.852C1048.88 691.136 1046.63 689.983 1044.98 689.383C1043.49 688.784 1041.88 688.748 1040.16 689.266C1038.44 689.795 1037.5 690.795 1037.36 692.288C1037.05 694.675 1038.92 696.475 1042.96 697.662C1044.75 698.262 1047.18 698.968 1050.24 699.791C1053.3 700.614 1055.73 701.284 1057.52 701.802C1059.31 702.331 1061.52 703.072 1064.13 704.036C1066.75 705.012 1068.99 705.976 1070.86 706.953C1072.73 707.929 1074.71 709.199 1076.8 710.763C1078.9 712.362 1080.85 714.114 1082.64 716.055Z" fill="white" fill-opacity="0.05"/>
<path d="M1229.08 705.078C1231.78 705.078 1234.05 706.007 1235.92 707.877C1237.79 709.746 1239.17 711.84 1240.06 714.145C1240.95 716.461 1241.66 719.554 1242.19 723.447C1242.71 727.327 1242.98 730.314 1242.98 732.408C1242.98 734.501 1242.98 737.112 1242.98 740.251C1242.98 740.851 1242.98 741.369 1242.98 741.815C1242.98 749.589 1242.08 756.457 1240.28 762.43C1239.53 764.971 1238.38 766.911 1236.81 768.252C1235.25 769.592 1233.04 771.015 1230.2 772.509C1226.92 774.155 1222.96 775.343 1218.32 776.095C1213.69 776.836 1210.18 777.248 1207.79 777.33C1205.4 777.401 1201.22 777.448 1195.24 777.448C1193.75 777.448 1192.63 777.448 1191.88 777.448C1173.95 777.742 1160.28 775.437 1150.87 770.498C1136.37 762.877 1128.53 750.553 1127.34 733.537C1124.95 700.833 1132.72 670.139 1150.64 641.457C1159.16 627.722 1168.73 618.455 1179.32 613.68C1190.54 608.753 1205.17 606.73 1223.25 607.636C1232.06 608.083 1237.74 610.552 1240.28 615.033C1241.63 617.279 1242.22 621.007 1242.07 626.24C1242.07 626.993 1242.07 627.922 1242.07 629.039C1242.07 630.156 1242.07 631.285 1242.07 632.402C1242.07 633.519 1242.04 634.719 1241.95 635.989C1241.87 637.259 1241.77 638.529 1241.61 639.799C1241.46 641.069 1241.24 642.269 1240.94 643.386C1240.64 644.503 1240.27 645.55 1239.83 646.526C1239.38 647.502 1238.78 648.36 1238.04 649.101C1237.28 649.854 1236.47 650.442 1235.57 650.889C1233.18 651.935 1230.56 651.782 1227.72 650.442C1226.38 649.701 1224.29 648.125 1221.45 645.738C1216.37 641.257 1211.82 638.27 1207.78 636.777C1203.15 635.589 1199.08 635.471 1195.57 636.436C1192.05 637.412 1188.96 639.54 1186.26 642.821C1183.57 646.114 1181.41 649.583 1179.77 653.24C1178.12 656.898 1176.85 660.743 1175.96 664.777C1172.52 680.911 1172.97 697.187 1177.3 713.615C1178.95 719.589 1181.9 723.741 1186.16 726.046C1190.42 728.362 1195.53 728.398 1201.51 726.163C1206.73 724.07 1211.97 719.813 1217.2 713.392C1218.7 711.605 1219.85 710.252 1220.67 709.358C1221.5 708.465 1222.72 707.536 1224.37 706.56C1226.01 705.56 1227.59 705.078 1229.08 705.078Z" fill="white" fill-opacity="0.05"/>
<path d="M1301.24 744.287C1301.98 750.708 1302.14 755.564 1301.69 758.845C1301.38 760.939 1300.87 762.95 1300.13 764.89C1298.93 767.583 1297.21 769.676 1294.97 771.158C1292.43 772.946 1288.02 774.074 1281.75 774.521C1275.02 774.521 1271.59 774.521 1271.45 774.521C1264.42 773.922 1259.49 772.51 1256.66 770.264C1255.61 769.371 1254.72 768.441 1253.97 767.465C1253.21 766.501 1252.66 765.302 1252.28 763.879C1251.91 762.456 1251.61 761.268 1251.39 760.292C1251.17 759.328 1251.05 757.94 1251.05 756.152C1251.05 754.365 1251.08 753.095 1251.17 752.342C1251.24 751.601 1251.39 750.214 1251.61 748.203C1251.84 746.192 1251.95 744.957 1251.95 744.51C1252.4 739.136 1253.67 728.976 1255.77 714.041C1259.35 688.204 1260.02 668.118 1257.78 653.771C1257.47 651.525 1256.8 648.28 1255.77 644.023C1254.72 639.765 1253.89 635.814 1253.29 632.145C1252.69 628.488 1252.47 625.16 1252.62 622.173C1252.92 615.305 1255.46 610.519 1260.25 607.838C1263.98 605.897 1268.42 604.78 1273.59 604.474C1278.74 604.18 1283.34 604.627 1287.37 605.815C1292.6 607.308 1296.11 609.366 1297.9 611.977C1299.69 614.588 1300.44 618.809 1300.14 624.631C1299.99 631.204 1299.24 641.059 1297.9 654.207C1295.96 672.881 1295.36 687.287 1296.11 697.447C1296.99 710.16 1298.7 725.765 1301.24 744.287Z" fill="white" fill-opacity="0.05"/>
<path d="M1406.8 763.105C1406.8 763.41 1406.8 763.775 1406.8 764.222C1407.25 767.362 1407.02 769.678 1406.13 771.172C1404.48 774.159 1401.57 775.276 1397.39 774.535C1396.05 774.382 1392.82 773.195 1387.75 770.948C1386.71 770.349 1385.59 769.937 1384.39 769.714C1383.19 769.49 1382.26 769.337 1381.59 769.267C1380.92 769.196 1379.87 769.349 1378.45 769.714C1377.03 770.09 1376.13 770.313 1375.76 770.384C1375.38 770.466 1374.33 770.796 1372.61 771.395C1370.9 771.995 1369.81 772.371 1369.37 772.512C1363.84 774.453 1357.97 775.535 1351.78 775.758C1345.58 775.982 1339.35 775.158 1333.06 773.289C1326.79 771.419 1321.71 768.397 1317.83 764.21C1315.6 762.117 1313.91 759.577 1312.78 756.59C1311.67 753.603 1310.91 750.957 1310.55 748.64C1310.17 746.323 1310.21 743.195 1310.67 739.232C1311.11 735.281 1311.53 732.435 1311.9 730.718C1312.28 729.001 1312.91 726.049 1313.81 721.863C1316.2 710.962 1317.31 703.2 1317.17 698.567C1317.17 694.533 1316.87 691.099 1316.28 688.265C1315.97 687.371 1315.57 686.219 1315.04 684.796C1314.51 683.373 1314.15 682.256 1313.93 681.433C1313.7 680.609 1313.51 679.457 1313.36 677.963C1313.21 676.47 1313.43 675.27 1314.03 674.377C1315.08 671.684 1317.17 669.673 1320.3 668.332C1324.48 666.545 1329.78 665.38 1336.22 664.863C1342.64 664.346 1347.88 665.051 1351.91 666.992C1353.7 668.191 1354.97 670.508 1355.72 673.942C1356.46 680.515 1356.77 685.701 1356.62 689.512C1356.46 693.322 1356.13 698.508 1355.6 705.082C1355.07 711.655 1354.9 716.877 1355.04 720.769C1355.04 723.156 1355.33 724.956 1355.93 726.143C1357.13 728.237 1358.7 728.978 1360.64 728.39C1361.24 728.096 1361.91 727.496 1362.65 726.602C1366.38 722.122 1367.96 714.278 1367.36 703.082C1366.76 687.548 1366.38 679.339 1366.24 678.434C1366.09 674.847 1366.46 672.236 1367.36 670.59C1368.4 668.497 1370.34 666.933 1373.18 665.886C1375.27 665.145 1377.88 664.616 1381.03 664.322C1384.17 664.028 1387.33 664.028 1390.55 664.322C1393.77 664.628 1396.82 665.369 1399.74 666.568C1402.66 667.768 1404.71 669.261 1405.91 671.049C1407.85 673.742 1408.15 677.246 1406.8 681.574C1406.35 683.067 1405.72 685.008 1404.89 687.395C1404.07 689.782 1403.4 691.734 1402.88 693.216C1402.35 694.709 1401.87 696.544 1401.42 698.708C1400.98 700.872 1400.67 703 1400.53 705.093C1400.38 709.727 1400.34 713.643 1400.41 716.853C1400.48 720.064 1400.82 723.909 1401.42 728.39C1402.02 732.87 1402.58 736.716 1403.11 739.926C1403.62 743.136 1404.26 746.982 1405.01 751.462C1405.75 755.931 1406.35 759.824 1406.8 763.105Z" fill="white" fill-opacity="0.05"/>
<path d="M1509.89 715.604C1510.04 720.531 1510.04 724.788 1509.89 728.375C1509.58 735.69 1508.62 742.122 1506.97 747.638C1503.23 759.433 1496.8 767.724 1487.7 772.51C1484.26 774.297 1480.19 775.567 1475.49 776.32C1470.78 777.061 1466.75 777.402 1463.38 777.331C1460.02 777.249 1455.38 776.99 1449.49 776.543C1443.59 776.097 1439.59 775.873 1437.5 775.873C1427.49 775.567 1420.4 773.709 1416.21 770.275C1412.47 766.994 1410.53 762.29 1410.39 756.164C1410.39 753.024 1411.21 747.873 1412.86 740.711C1415.25 730.551 1417.12 721.19 1418.46 712.593C1419.8 704.009 1420.69 694.777 1421.15 684.923C1421.6 675.068 1421 665.437 1419.36 656.017C1417.72 646.609 1414.95 637.801 1411.07 629.581C1409.87 627.041 1409.23 624.724 1409.16 622.631C1409.08 620.538 1409.42 618.821 1410.18 617.48C1410.92 616.139 1412.19 614.905 1413.99 613.787C1415.78 612.67 1417.54 611.812 1419.26 611.212C1420.98 610.612 1423.1 610.13 1425.65 609.754C1428.19 609.377 1430.32 609.119 1432.03 608.966C1433.75 608.825 1435.81 608.672 1438.2 608.519C1444.33 608.225 1448.66 609.048 1451.2 610.989C1454.34 613.682 1455.68 618.985 1455.23 626.9C1455.08 630.192 1454.89 634.708 1454.67 640.459C1454.44 646.209 1454.22 651.478 1454 656.252C1453.77 661.038 1453.43 665.519 1452.98 669.694C1452.98 670.293 1453.05 670.74 1453.21 671.034C1453.5 671.787 1454.48 671.928 1456.13 671.481C1460.61 669.988 1465.05 668.976 1469.47 668.459C1473.86 667.941 1478.32 667.977 1482.79 668.576C1487.28 669.176 1491.38 670.74 1495.12 673.28C1498.85 675.82 1501.77 679.325 1503.86 683.805C1507.42 691.261 1509.44 701.868 1509.89 715.604ZM1471.11 720.978C1472.31 710.077 1471.85 701.786 1469.77 696.106C1467.38 689.38 1464.62 688.262 1461.48 692.743C1459.83 695.283 1458.71 698.341 1458.11 701.927C1457.07 708.054 1456.69 712.829 1457 716.262C1457.29 721.942 1458.78 726.047 1461.48 728.587C1462.82 729.786 1464.35 730.198 1466.08 729.822C1467.79 729.445 1469.03 728.293 1469.77 726.352C1470.37 725.012 1470.82 723.224 1471.11 720.978Z" fill="white" fill-opacity="0.05"/>
</g>
<defs>
<filter id="filter0_f_4613_1916" x="473.654" y="0" width="572.506" height="562.395" filterUnits="userSpaceOnUse" color-interpolation-filters="sRGB">
<feFlood flood-opacity="0" result="BackgroundImageFix"/>
<feBlend mode="normal" in="SourceGraphic" in2="BackgroundImageFix" result="shape"/>
<feGaussianBlur stdDeviation="5" result="effect1_foregroundBlur_4613_1916"/>
</filter>
<filter id="filter1_f_4613_1916" x="0" y="594.387" width="1520" height="250.613" filterUnits="userSpaceOnUse" color-interpolation-filters="sRGB">
<feFlood flood-opacity="0" result="BackgroundImageFix"/>
<feBlend mode="normal" in="SourceGraphic" in2="BackgroundImageFix" result="shape"/>
<feGaussianBlur stdDeviation="5" result="effect1_foregroundBlur_4613_1916"/>
</filter>
</defs>
</svg>
