<svg width="602" height="243" viewBox="0 0 602 243" fill="none" xmlns="http://www.w3.org/2000/svg">
<path d="M0.4 97V13H19.96L54.76 70.12H44.44L78.28 13H97.84L98.08 97H76.24L76 46.24H79.72L54.4 88.72H43.84L17.8 46.24H22.36V97H0.4ZM150.532 97V84.88L148.972 81.88V59.56C148.972 55.96 147.852 53.2 145.612 51.28C143.452 49.28 139.972 48.28 135.172 48.28C132.052 48.28 128.892 48.8 125.692 49.84C122.492 50.8 119.772 52.16 117.532 53.92L109.852 38.44C113.532 36.04 117.932 34.2 123.052 32.92C128.252 31.56 133.412 30.88 138.532 30.88C149.092 30.88 157.252 33.32 163.012 38.2C168.852 43 171.772 50.56 171.772 60.88V97H150.532ZM131.332 98.08C126.132 98.08 121.732 97.2 118.132 95.44C114.532 93.68 111.772 91.28 109.852 88.24C108.012 85.2 107.092 81.8 107.092 78.04C107.092 74.04 108.092 70.6 110.092 67.72C112.172 64.76 115.332 62.52 119.572 61C123.812 59.4 129.292 58.6 136.012 58.6H151.372V70.48H139.132C135.452 70.48 132.852 71.08 131.332 72.28C129.892 73.48 129.172 75.08 129.172 77.08C129.172 79.08 129.932 80.68 131.452 81.88C132.972 83.08 135.052 83.68 137.692 83.68C140.172 83.68 142.412 83.08 144.412 81.88C146.492 80.6 148.012 78.68 148.972 76.12L152.092 84.52C150.892 89 148.532 92.4 145.012 94.72C141.572 96.96 137.012 98.08 131.332 98.08ZM183.164 97V31.96H204.884V50.92L201.644 45.52C203.564 40.64 206.684 37 211.004 34.6C215.324 32.12 220.564 30.88 226.724 30.88V51.4C225.684 51.24 224.764 51.16 223.964 51.16C223.244 51.08 222.444 51.04 221.564 51.04C216.924 51.04 213.164 52.32 210.284 54.88C207.404 57.36 205.964 61.44 205.964 67.12V97H183.164ZM233.133 97V31.96H255.933V97H233.133ZM244.533 24.76C240.373 24.76 237.013 23.6 234.453 21.28C231.893 18.96 230.613 16.08 230.613 12.64C230.613 9.2 231.893 6.31999 234.453 4C237.013 1.68 240.373 0.519998 244.533 0.519998C248.693 0.519998 252.053 1.64 254.613 3.88C257.173 6.04 258.453 8.84 258.453 12.28C258.453 15.88 257.173 18.88 254.613 21.28C252.133 23.6 248.773 24.76 244.533 24.76ZM310.11 30.88C315.15 30.88 319.71 31.92 323.79 34C327.87 36 331.07 39.12 333.39 43.36C335.79 47.6 336.99 53.08 336.99 59.8V97H314.19V63.52C314.19 58.88 313.23 55.52 311.31 53.44C309.47 51.28 306.87 50.2 303.51 50.2C301.11 50.2 298.91 50.76 296.91 51.88C294.91 52.92 293.35 54.56 292.23 56.8C291.11 59.04 290.55 61.96 290.55 65.56V97H267.75V31.96H289.47V50.44L285.27 45.04C287.75 40.32 291.15 36.8 295.47 34.48C299.79 32.08 304.67 30.88 310.11 30.88ZM383.205 98.08C375.525 98.08 368.805 96.64 363.045 93.76C357.365 90.8 352.925 86.8 349.725 81.76C346.605 76.64 345.045 70.84 345.045 64.36C345.045 57.88 346.565 52.12 349.605 47.08C352.725 41.96 357.005 38 362.445 35.2C367.885 32.32 374.005 30.88 380.805 30.88C387.205 30.88 393.045 32.2 398.325 34.84C403.605 37.4 407.805 41.2 410.925 46.24C414.045 51.28 415.605 57.4 415.605 64.6C415.605 65.4 415.565 66.32 415.485 67.36C415.405 68.4 415.325 69.36 415.245 70.24H363.765V58.24H403.125L394.485 61.6C394.565 58.64 394.005 56.08 392.805 53.92C391.685 51.76 390.085 50.08 388.005 48.88C386.005 47.68 383.645 47.08 380.925 47.08C378.205 47.08 375.805 47.68 373.725 48.88C371.725 50.08 370.165 51.8 369.045 54.04C367.925 56.2 367.365 58.76 367.365 61.72V65.2C367.365 68.4 368.005 71.16 369.285 73.48C370.645 75.8 372.565 77.6 375.045 78.88C377.525 80.08 380.485 80.68 383.925 80.68C387.125 80.68 389.845 80.24 392.085 79.36C394.405 78.4 396.685 76.96 398.925 75.04L410.925 87.52C407.805 90.96 403.965 93.6 399.405 95.44C394.845 97.2 389.445 98.08 383.205 98.08ZM0.4 218V134H43.36C54.4 134 62.64 136.04 68.08 140.12C73.52 144.12 76.24 149.4 76.24 155.96C76.24 160.28 75.08 164.08 72.76 167.36C70.52 170.56 67.32 173.12 63.16 175.04C59.08 176.88 54.2 177.8 48.52 177.8L50.92 172.04C56.84 172.04 62 172.96 66.4 174.8C70.8 176.56 74.2 179.16 76.6 182.6C79.08 185.96 80.32 190.08 80.32 194.96C80.32 202.24 77.36 207.92 71.44 212C65.6 216 57.04 218 45.76 218H0.4ZM23.92 200.84H43.84C47.92 200.84 51 200.16 53.08 198.8C55.24 197.36 56.32 195.2 56.32 192.32C56.32 189.44 55.24 187.32 53.08 185.96C51 184.52 47.92 183.8 43.84 183.8H22.24V167.36H40.24C44.24 167.36 47.24 166.68 49.24 165.32C51.24 163.96 52.24 161.92 52.24 159.2C52.24 156.48 51.24 154.48 49.24 153.2C47.24 151.84 44.24 151.16 40.24 151.16H23.92V200.84ZM121.187 219.08C114.067 219.08 107.747 217.64 102.227 214.76C96.7066 211.88 92.3466 207.92 89.1466 202.88C86.0266 197.76 84.4666 191.92 84.4666 185.36C84.4666 178.8 86.0266 173 89.1466 167.96C92.3466 162.92 96.7066 159 102.227 156.2C107.747 153.32 114.067 151.88 121.187 151.88C128.307 151.88 134.627 153.32 140.147 156.2C145.747 159 150.107 162.92 153.227 167.96C156.347 173 157.907 178.8 157.907 185.36C157.907 191.92 156.347 197.76 153.227 202.88C150.107 207.92 145.747 211.88 140.147 214.76C134.627 217.64 128.307 219.08 121.187 219.08ZM121.187 200.96C123.827 200.96 126.147 200.36 128.147 199.16C130.227 197.96 131.867 196.2 133.067 193.88C134.267 191.48 134.867 188.64 134.867 185.36C134.867 182.08 134.267 179.32 133.067 177.08C131.867 174.76 130.227 173 128.147 171.8C126.147 170.6 123.827 170 121.187 170C118.627 170 116.307 170.6 114.227 171.8C112.227 173 110.587 174.76 109.307 177.08C108.107 179.32 107.507 182.08 107.507 185.36C107.507 188.64 108.107 191.48 109.307 193.88C110.587 196.2 112.227 197.96 114.227 199.16C116.307 200.36 118.627 200.96 121.187 200.96ZM174.871 242.36C171.431 242.36 167.951 241.8 164.431 240.68C160.991 239.64 158.191 238.24 156.031 236.48L163.951 220.52C165.311 221.72 166.871 222.64 168.631 223.28C170.471 224 172.271 224.36 174.031 224.36C176.511 224.36 178.471 223.8 179.911 222.68C181.351 221.56 182.591 219.8 183.631 217.4L186.631 209.84L188.431 207.56L210.511 152.96H232.231L204.151 220.64C201.911 226.24 199.311 230.6 196.351 233.72C193.471 236.92 190.231 239.16 186.631 240.44C183.111 241.72 179.191 242.36 174.871 242.36ZM183.751 220.76L155.071 152.96H178.471L199.591 205.52L183.751 220.76ZM257.71 219.08C252.19 219.08 246.79 218.44 241.51 217.16C236.31 215.88 232.11 214.28 228.91 212.36L235.75 196.76C238.79 198.6 242.35 200.08 246.43 201.2C250.51 202.24 254.51 202.76 258.43 202.76C262.27 202.76 264.91 202.36 266.35 201.56C267.87 200.76 268.63 199.68 268.63 198.32C268.63 197.04 267.91 196.12 266.47 195.56C265.11 194.92 263.27 194.44 260.95 194.12C258.71 193.8 256.23 193.44 253.51 193.04C250.79 192.64 248.03 192.12 245.23 191.48C242.51 190.76 239.99 189.72 237.67 188.36C235.43 186.92 233.63 185 232.27 182.6C230.91 180.2 230.23 177.16 230.23 173.48C230.23 169.32 231.43 165.64 233.83 162.44C236.31 159.16 239.91 156.6 244.63 154.76C249.35 152.84 255.11 151.88 261.91 151.88C266.47 151.88 271.07 152.36 275.71 153.32C280.43 154.2 284.39 155.56 287.59 157.4L280.75 172.88C277.55 171.04 274.35 169.8 271.15 169.16C267.95 168.44 264.91 168.08 262.03 168.08C258.19 168.08 255.47 168.52 253.87 169.4C252.35 170.28 251.59 171.36 251.59 172.64C251.59 173.92 252.27 174.92 253.63 175.64C254.99 176.28 256.79 176.8 259.03 177.2C261.35 177.52 263.87 177.88 266.59 178.28C269.31 178.6 272.03 179.12 274.75 179.84C277.55 180.56 280.07 181.64 282.31 183.08C284.63 184.44 286.47 186.32 287.83 188.72C289.19 191.04 289.87 194.04 289.87 197.72C289.87 201.72 288.63 205.32 286.15 208.52C283.75 211.72 280.15 214.28 275.35 216.2C270.63 218.12 264.75 219.08 257.71 219.08ZM371.577 219.68C364.937 219.68 358.777 218.64 353.097 216.56C347.497 214.4 342.617 211.36 338.457 207.44C334.377 203.52 331.177 198.92 328.857 193.64C326.537 188.28 325.377 182.4 325.377 176C325.377 169.6 326.537 163.76 328.857 158.48C331.177 153.12 334.377 148.48 338.457 144.56C342.617 140.64 347.497 137.64 353.097 135.56C358.777 133.4 364.937 132.32 371.577 132.32C379.337 132.32 386.257 133.68 392.337 136.4C398.497 139.12 403.617 143.04 407.697 148.16L392.577 161.84C389.857 158.64 386.857 156.2 383.577 154.52C380.377 152.84 376.777 152 372.777 152C369.337 152 366.177 152.56 363.297 153.68C360.417 154.8 357.937 156.44 355.857 158.6C353.857 160.68 352.257 163.2 351.057 166.16C349.937 169.12 349.377 172.4 349.377 176C349.377 179.6 349.937 182.88 351.057 185.84C352.257 188.8 353.857 191.36 355.857 193.52C357.937 195.6 360.417 197.2 363.297 198.32C366.177 199.44 369.337 200 372.777 200C376.777 200 380.377 199.16 383.577 197.48C386.857 195.8 389.857 193.36 392.577 190.16L407.697 203.84C403.617 208.88 398.497 212.8 392.337 215.6C386.257 218.32 379.337 219.68 371.577 219.68ZM414.211 218V128.96H437.011V218H414.211ZM476.188 219.08C470.908 219.08 466.148 218.04 461.908 215.96C457.748 213.88 454.468 210.64 452.068 206.24C449.748 201.76 448.588 196.12 448.588 189.32V152.96H471.388V185.6C471.388 190.64 472.308 194.24 474.148 196.4C476.068 198.56 478.748 199.64 482.188 199.64C484.428 199.64 486.468 199.12 488.308 198.08C490.148 197.04 491.628 195.4 492.748 193.16C493.868 190.84 494.428 187.88 494.428 184.28V152.96H517.228V218H495.508V199.64L499.708 204.8C497.468 209.6 494.228 213.2 489.988 215.6C485.748 217.92 481.148 219.08 476.188 219.08ZM569.834 219.08C563.994 219.08 559.114 217.88 555.194 215.48C551.354 213.08 548.474 209.4 546.554 204.44C544.634 199.48 543.674 193.12 543.674 185.36C543.674 177.76 544.674 171.48 546.674 166.52C548.754 161.56 551.754 157.88 555.674 155.48C559.594 153.08 564.314 151.88 569.834 151.88C575.754 151.88 581.114 153.24 585.914 155.96C590.794 158.68 594.634 162.56 597.434 167.6C600.314 172.56 601.754 178.48 601.754 185.36C601.754 192.32 600.314 198.32 597.434 203.36C594.634 208.32 590.794 212.2 585.914 215C581.114 217.72 575.754 219.08 569.834 219.08ZM528.914 218V128.96H551.714V163.88L550.514 185.36L550.634 206.84V218H528.914ZM565.034 200.96C567.594 200.96 569.874 200.36 571.874 199.16C573.954 197.96 575.594 196.2 576.794 193.88C578.074 191.48 578.714 188.64 578.714 185.36C578.714 182.08 578.074 179.32 576.794 177.08C575.594 174.76 573.954 173 571.874 171.8C569.874 170.6 567.594 170 565.034 170C562.474 170 560.154 170.6 558.074 171.8C556.074 173 554.434 174.76 553.154 177.08C551.954 179.32 551.354 182.08 551.354 185.36C551.354 188.64 551.954 191.48 553.154 193.88C554.434 196.2 556.074 197.96 558.074 199.16C560.154 200.36 562.474 200.96 565.034 200.96Z" fill="white"/>
</svg>
